<svg width="153" height="28" viewBox="0 0 153 28" fill="none" xmlns="http://www.w3.org/2000/svg">
<path d="M150.645 0.00350165C149.67 0.0867215 148.925 0.90983 148.94 1.88831V25.1909C148.925 26.1696 149.67 26.9931 150.645 27.0763C151.145 27.1072 151.637 26.93 152.002 26.5865C152.367 26.243 152.575 25.7638 152.575 25.2623L152.575 1.81754C152.575 1.31592 152.368 0.836615 152.002 0.493096C151.637 0.149579 151.145 -0.0276042 150.645 0.00350165Z" fill="black"/>
<path d="M51.7013 0.194823C50.7936 -0.259636 49.6893 0.107942 49.235 1.01578L39.0791 21.3097C39.0774 21.3131 39.074 21.3153 39.0702 21.3153C39.0664 21.3153 39.063 21.3131 39.0613 21.3097L28.9055 1.01578C28.4378 0.133704 27.3515 -0.213696 26.4587 0.233338C25.566 0.680371 25.1934 1.75832 25.6196 2.6612L37.3306 26.0646C37.6421 26.6876 38.2791 27.0809 38.9757 27.0804C39.0069 27.0804 39.0386 27.0766 39.0701 27.0751C39.1015 27.0737 39.1333 27.0804 39.1647 27.0804C39.8613 27.0809 40.4983 26.6876 40.8098 26.0646L52.5223 2.6612C52.9766 1.75342 52.609 0.649247 51.7013 0.194823Z" fill="black"/>
<path d="M110.196 0.185502C109.218 0.269573 108.472 1.09439 108.487 2.07497V19.8615C108.487 19.8658 108.484 19.8698 108.48 19.8712C108.476 19.8726 108.472 19.8711 108.469 19.8676L93.7816 0.712909C93.2057 -0.0367916 92.1525 -0.22235 91.3551 0.285393C90.8214 0.636339 90.5044 1.23596 90.5149 1.8746V25.1871C90.5004 26.1675 91.2463 26.9923 92.2232 27.0763C92.725 27.1074 93.2172 26.9298 93.5835 26.5855C93.9498 26.2412 94.1575 25.7609 94.1575 25.2582V7.21857C94.1577 7.21446 94.1603 7.21084 94.1641 7.20949C94.168 7.20813 94.1724 7.20931 94.175 7.21245L108.863 26.3666C109.448 27.1295 110.525 27.3068 111.324 26.7717C111.838 26.4171 112.14 25.8296 112.13 25.2057V2.00362C112.13 1.5012 111.922 1.02082 111.556 0.676486C111.19 0.332009 110.697 0.154403 110.196 0.185502Z" fill="black"/>
<path d="M141.67 4.92926e-06H119.659C118.68 -0.0148557 117.856 0.729862 117.773 1.70512C117.742 2.20565 117.92 2.69668 118.263 3.06206C118.607 3.42743 119.086 3.63468 119.587 3.63478L128.802 3.63478C128.807 3.63492 128.811 3.63927 128.812 3.64468L128.811 25.1909C128.797 26.1694 129.541 26.9928 130.516 27.0763C131.017 27.1071 131.508 26.9299 131.873 26.5864C132.238 26.2429 132.446 25.7637 132.446 25.2623V3.64468C132.446 3.63943 132.45 3.63508 132.455 3.63478L141.599 3.63478C142.578 3.64933 143.401 2.90469 143.484 1.92966C143.515 1.42908 143.338 0.937999 142.994 0.572616C142.651 0.207233 142.171 1.83993e-05 141.67 4.92926e-06Z" fill="black"/>
<path d="M15.3868 1.01496C15.0595 0.361174 14.3757 -0.036353 13.6456 0.00266199C12.9168 -0.0347013 12.2348 0.362542 11.9078 1.01496L0.194802 24.4192C-0.259568 25.327 0.107989 26.4312 1.01576 26.8856C1.92354 27.3399 3.02777 26.9724 3.48214 26.0646L6.35944 20.3156C6.36102 20.3122 6.36443 20.31 6.36818 20.31H20.9265C20.9302 20.31 20.9336 20.3122 20.9352 20.3156L23.8125 26.0646C24.2669 26.9723 25.3711 27.3398 26.2787 26.8854C27.1864 26.4311 27.5539 25.3269 27.0996 24.4192L15.3868 1.01496ZM7.74887 17.5387L13.6386 5.77036C13.6402 5.76694 13.6436 5.76475 13.6473 5.76475C13.6511 5.76475 13.6545 5.76694 13.6561 5.77036L19.5461 17.5387C19.5476 17.5417 19.5475 17.5453 19.5457 17.5482C19.5439 17.5511 19.5407 17.5528 19.5373 17.5527H7.75761C7.75423 17.5528 7.75107 17.5511 7.74928 17.5482C7.74749 17.5453 7.74733 17.5417 7.74887 17.5387Z" fill="black"/>
<path d="M84.9895 24.5904C84.9678 24.5287 84.9424 24.4683 84.9135 24.4096L74.1277 2.61608C73.5737 1.33533 72.4198 0.413303 71.0483 0.155417C69.6769 -0.102468 68.2669 0.337452 67.2854 1.32945L64.6353 6.37521L58.2752 19.7715C57.2251 21.7955 55.5692 23.1357 53.5964 23.6049L63.335 3.99619C63.3545 3.9563 63.3725 3.91582 63.3891 3.87475C63.5483 3.51692 63.9035 3.28654 64.2951 3.28706C64.332 3.28769 64.3687 3.29041 64.4052 3.29522L66.007 0.44617C64.9808 -0.0113963 63.8141 -0.0388224 62.7675 0.370021C61.721 0.778864 60.8818 1.5899 60.4376 2.62191L49.6404 24.3653C49.6238 24.3965 49.6084 24.4282 49.5938 24.4611C49.3539 24.9922 49.3902 25.6073 49.6908 26.1066C49.9914 26.6059 50.5181 26.9257 51.0998 26.9621C51.3936 26.9866 51.6909 26.9988 51.9848 26.9988C55.8502 26.9988 59.2715 24.8388 61.1356 21.2198C61.1435 21.2043 61.1514 21.1889 61.1586 21.1729L67.2272 8.38902L67.2289 8.38494L67.2828 8.27195L69.0593 4.53991L69.0567 4.53438L69.324 3.97115C69.3352 3.94746 69.3458 3.92368 69.3557 3.8998C69.5095 3.52887 69.8715 3.28705 70.2731 3.28705C70.6746 3.28705 71.0366 3.52887 71.1905 3.8998C71.2036 3.93212 71.2196 3.96416 71.2338 3.99561L80.938 23.604C78.9792 23.1334 77.3315 21.7941 76.2828 19.7721L69.8962 6.30298L68.1329 10.0644L73.3988 21.1706C73.4064 21.1863 73.4142 21.2023 73.4221 21.218C75.3151 24.891 78.6397 26.9971 82.5464 26.9971C82.8549 26.9971 83.1671 26.9834 83.4743 26.9566C83.6688 26.9399 83.8587 26.8876 84.0343 26.8023C84.8887 26.4339 85.3075 25.4632 84.9892 24.589" fill="black"/>
</svg>
